{"title":"Zila Ghaziabad 2013 Hindi Best HDScam Rip Sample Included ~ rDX","uid":8179639,"size":719460352,"categoryP":"video","categoryS":"movies","magnet":"?xt=urn:btih:4babb1df5c214c41641ffa0302c35fccf8d255ea&amp;dn=Zila+Ghaziabad+2013+Hindi+Best+HDScam+Rip+Sample+Included+%7E+rDX&amp;tr=udp%3A%2F%2Ftracker.openbittorrent.com%3A80&amp;tr=udp%3A%2F%2Fopen.demonii.com%3A1337&amp;tr=udp%3A%2F%2Ftracker.coppersurfer.tk%3A6969&amp;tr=udp%3A%2F%2Fexodus.desync.com%3A6969","seeders":1,"leechers":0,"uploader":"basicssom","files":2,"time":1361599936,"description":"Zila Ghaziabad 2013 Hindi Movies Best HDScam Rip Sample Included ~ rDX\n\nScreen Shots :\n &lt;a href=&quot;\nhttp://myimghosting.serveftp.com/13/ZilaGhaziabad.html&quot; rel=&quot;nofollow&quot; target=&quot;_NEW&quot;&gt;\nhttp://myimghosting.serveftp.com/13/ZilaGhaziabad.html&lt;/a&gt;\n &lt;a href=&quot;\nhttp://myimghost.cwahi.net/ZilaGhaziabad.html&quot; rel=&quot;nofollow&quot; target=&quot;_NEW&quot;&gt;\nhttp://myimghost.cwahi.net/ZilaGhaziabad.html&lt;/a&gt;\n\n\nFormat                                   : MPEG-PS\nFile size                                : 680 MiB\nDuration                                 : 2h 8mn\nOverall bit rate mode                    : Variable\nOverall bit rate                         : 738 Kbps\n\nVideo\nID                                       : 224 (0xE0)\nFormat                                   : MPEG Video\nFormat version                           : Version 2\nFormat profile                           : Main@Main\nFormat settings, BVOP                    : Yes\nFormat settings, Matrix                  : Default\nFormat settings, GOP                     : M=3, N=13\nDuration                                 : 2h 8mn\nBit rate mode                            : Variable\nBit rate                                 : 596 Kbps\nMaximum bit rate                         : 9 672 Kbps\nWidth                                    : 352 pixels\nHeight                                   : 288 pixels\nDisplay aspect ratio                     : 4:3\nFrame rate                               : 25.000 fps\nStandard                                 : PAL\nColor space                              : YUV\nChroma subsampling                       : 4:2:0\nBit depth                                : 8 bits\nScan type                                : Progressive\nCompression mode                         : Lossy\nBits/(Pixel*Frame)                       : 0.235\nStream size                              : 549 MiB (81%)\n\nAudio\nID                                       : 192 (0xC0)\nFormat                                   : MPEG Audio\nFormat version                           : Version 1\nFormat profile                           : Layer 2\nDuration                                 : 2h 8mn\nBit rate mode                            : Constant\nBit rate                                 : 128 Kbps\nChannel(s)                               : 2 channels\nSampling rate                            : 48.0 KHz\nCompression mode                         : Lossy\nStream size                              : 118 MiB (17%)","torrent":{"xt":"urn:btih:4babb1df5c214c41641ffa0302c35fccf8d255ea","amp;dn":"Zila+Ghaziabad+2013+Hindi+Best+HDScam+Rip+Sample+Included+%7E+rDX","amp;tr":["udp%3A%2F%2Ftracker.openbittorrent.com%3A80","udp%3A%2F%2Fopen.demonii.com%3A1337","udp%3A%2F%2Ftracker.coppersurfer.tk%3A6969","udp%3A%2F%2Fexodus.desync.com%3A6969"],"infoHash":"4babb1df5c214c41641ffa0302c35fccf8d255ea","infoHashBuffer":{"type":"Buffer","data":[75,171,177,223,92,33,76,65,100,31,250,3,2,195,95,204,248,210,85,234]},"announce":[],"urlList":[]}}